<?xml version="1.0" encoding="UTF-8" standalone="no"?>
<!DOCTYPE svg PUBLIC "-//W3C//DTD SVG 1.1//EN" "http://www.w3.org/Graphics/SVG/1.1/DTD/svg11.dtd">
<svg width="100%" height="100%" viewBox="0 0 1024 1024" version="1.1" xmlns="http://www.w3.org/2000/svg" xmlns:xlink="http://www.w3.org/1999/xlink" xml:space="preserve" xmlns:serif="http://www.serif.com/" style="fill-rule:evenodd;clip-rule:evenodd;stroke-linejoin:round;stroke-miterlimit:2;">
    <g transform="matrix(1.23237,0,0,1,-180.703,-227.829)">
        <path d="M950.929,297.181L950.929,374.638C950.929,396.014 936.848,413.367 919.503,413.367L199.677,413.367C182.332,413.367 168.25,396.014 168.25,374.638L168.25,297.181C168.25,275.806 182.332,258.452 199.677,258.452L919.503,258.452C936.848,258.452 950.929,275.806 950.929,297.181Z" style="fill:rgb(235,235,235);"/>
    </g>
    <g transform="matrix(1.23237,0,0,1,-180.703,-47.1483)">
        <path d="M950.929,297.181L950.929,374.638C950.929,396.014 936.848,413.367 919.503,413.367L199.677,413.367C182.332,413.367 168.25,396.014 168.25,374.638L168.25,297.181C168.25,275.806 182.332,258.452 199.677,258.452L919.503,258.452C936.848,258.452 950.929,275.806 950.929,297.181Z" style="fill:rgb(235,235,235);"/>
    </g>
    <g transform="matrix(1.23237,0,0,1.52784,-180.703,-2.88942)">
        <path d="M950.929,297.181L950.929,374.638C950.929,396.014 929.415,413.367 902.915,413.367L216.265,413.367C189.765,413.367 168.25,396.014 168.25,374.638L168.25,297.181C168.25,275.806 189.765,258.452 216.265,258.452L902.915,258.452C929.415,258.452 950.929,275.806 950.929,297.181Z" style="fill:rgb(235,235,235);"/>
    </g>
    <g transform="matrix(1.23237,0,0,1,-180.703,395.983)">
        <path d="M950.929,297.181L950.929,374.638C950.929,396.014 936.848,413.367 919.503,413.367L199.677,413.367C182.332,413.367 168.25,396.014 168.25,374.638L168.25,297.181C168.25,275.806 182.332,258.452 199.677,258.452L919.503,258.452C936.848,258.452 950.929,275.806 950.929,297.181Z" style="fill:rgb(235,235,235);"/>
    </g>
    <g transform="matrix(1.23237,0,0,1,-180.703,576.663)">
        <path d="M950.929,297.181L950.929,374.638C950.929,396.014 936.848,413.367 919.503,413.367L199.677,413.367C182.332,413.367 168.25,396.014 168.25,374.638L168.25,297.181C168.25,275.806 182.332,258.452 199.677,258.452L919.503,258.452C936.848,258.452 950.929,275.806 950.929,297.181Z" style="fill:rgb(235,235,235);"/>
    </g>
</svg>
