<?xml version="1.0" encoding="UTF-8"?>
<!--Generator: Apple Native CoreSVG 341-->
<!DOCTYPE svg
PUBLIC "-//W3C//DTD SVG 1.1//EN"
       "http://www.w3.org/Graphics/SVG/1.1/DTD/svg11.dtd">
<svg version="1.1" xmlns="http://www.w3.org/2000/svg" xmlns:xlink="http://www.w3.org/1999/xlink" viewBox="0 0 3300 2200">
 <!--glyph: "", point size: 100.0, font version: "20.0d10e1", template writer version: "138.0.0"-->
 <style>.monochrome-0 {-sfsymbols-motion-group:1;-sfsymbols-layer-tags:-2d4f7a174a8c7633 1d4b089d7ced594e quote.bubble}
.monochrome-1 {-sfsymbols-motion-group:1;-sfsymbols-layer-tags:-2d4f7a174a8c7633 1d4b089d7ced594e quote.bubble}
.monochrome-2 {opacity:0.0;-sfsymbols-clear-behind:true;-sfsymbols-motion-group:0;-sfsymbols-layer-tags:1d4b089d7ced594e _slash}
.monochrome-3 {-sfsymbols-motion-group:0;-sfsymbols-layer-tags:1d4b089d7ced594e _slash}

.multicolor-0:tintColor {-sfsymbols-motion-group:1;-sfsymbols-layer-tags:-2d4f7a174a8c7633 1d4b089d7ced594e quote.bubble}
.multicolor-1:tintColor {-sfsymbols-motion-group:1;-sfsymbols-layer-tags:-2d4f7a174a8c7633 1d4b089d7ced594e quote.bubble}
.multicolor-2:tintColor {opacity:0.0;-sfsymbols-clear-behind:true;-sfsymbols-motion-group:0;-sfsymbols-layer-tags:1d4b089d7ced594e _slash}
.multicolor-3:tintColor {-sfsymbols-motion-group:0;-sfsymbols-layer-tags:1d4b089d7ced594e _slash}

.hierarchical-0:secondary {-sfsymbols-motion-group:1;-sfsymbols-layer-tags:-2d4f7a174a8c7633 1d4b089d7ced594e quote.bubble}
.hierarchical-1:secondary {-sfsymbols-motion-group:1;-sfsymbols-layer-tags:-2d4f7a174a8c7633 1d4b089d7ced594e quote.bubble}
.hierarchical-2:primary {opacity:0.0;-sfsymbols-clear-behind:true;-sfsymbols-motion-group:0;-sfsymbols-layer-tags:1d4b089d7ced594e _slash}
.hierarchical-3:primary {-sfsymbols-motion-group:0;-sfsymbols-layer-tags:1d4b089d7ced594e _slash}

.SFSymbolsPreviewWireframe {fill:none;opacity:1.0;stroke:black;stroke-width:0.5}
</style>
 <g id="Notes">
  <rect height="2200" id="artboard" style="fill:white;opacity:1" width="3300" x="0" y="0"/>
  <line style="fill:none;stroke:black;opacity:1;stroke-width:0.5;" x1="263" x2="3036" y1="292" y2="292"/>
  <text style="stroke:none;fill:black;font-family:sans-serif;font-size:13;font-weight:bold;" transform="matrix(1 0 0 1 263 322)">Weight/Scale Variations</text>
  <text style="stroke:none;fill:black;font-family:sans-serif;font-size:13;text-anchor:middle;" transform="matrix(1 0 0 1 559.711 322)">Ultralight</text>
  <text style="stroke:none;fill:black;font-family:sans-serif;font-size:13;text-anchor:middle;" transform="matrix(1 0 0 1 856.422 322)">Thin</text>
  <text style="stroke:none;fill:black;font-family:sans-serif;font-size:13;text-anchor:middle;" transform="matrix(1 0 0 1 1153.13 322)">Light</text>
  <text style="stroke:none;fill:black;font-family:sans-serif;font-size:13;text-anchor:middle;" transform="matrix(1 0 0 1 1449.84 322)">Regular</text>
  <text style="stroke:none;fill:black;font-family:sans-serif;font-size:13;text-anchor:middle;" transform="matrix(1 0 0 1 1746.56 322)">Medium</text>
  <text style="stroke:none;fill:black;font-family:sans-serif;font-size:13;text-anchor:middle;" transform="matrix(1 0 0 1 2043.27 322)">Semibold</text>
  <text style="stroke:none;fill:black;font-family:sans-serif;font-size:13;text-anchor:middle;" transform="matrix(1 0 0 1 2339.98 322)">Bold</text>
  <text style="stroke:none;fill:black;font-family:sans-serif;font-size:13;text-anchor:middle;" transform="matrix(1 0 0 1 2636.69 322)">Heavy</text>
  <text style="stroke:none;fill:black;font-family:sans-serif;font-size:13;text-anchor:middle;" transform="matrix(1 0 0 1 2933.4 322)">Black</text>
  <line style="fill:none;stroke:black;opacity:1;stroke-width:0.5;" x1="263" x2="3036" y1="1903" y2="1903"/>
  <g transform="matrix(0.2 0 0 0.2 263 1933)">
   <path d="m46.2402 4.15039c21.7773 0 39.4531-17.627 39.4531-39.4043s-17.6758-39.4043-39.4531-39.4043c-21.7285 0-39.4043 17.627-39.4043 39.4043s17.6758 39.4043 39.4043 39.4043Zm0-7.42188c-17.6758 0-31.9336-14.3066-31.9336-31.9824s14.2578-31.9824 31.9336-31.9824 31.9824 14.3066 31.9824 31.9824-14.3066 31.9824-31.9824 31.9824Zm-17.9688-31.9824c0 2.14844 1.51367 3.61328 3.75977 3.61328h10.498v10.5957c0 2.19727 1.46484 3.71094 3.61328 3.71094 2.24609 0 3.71094-1.51367 3.71094-3.71094v-10.5957h10.5957c2.19727 0 3.71094-1.46484 3.71094-3.61328 0-2.19727-1.51367-3.71094-3.71094-3.71094h-10.5957v-10.5469c0-2.24609-1.46484-3.75977-3.71094-3.75977-2.14844 0-3.61328 1.51367-3.61328 3.75977v10.5469h-10.498c-2.24609 0-3.75977 1.51367-3.75977 3.71094Z"/>
  </g>
  <g transform="matrix(0.2 0 0 0.2 281.506 1933)">
   <path d="m58.5449 14.5508c27.4902 0 49.8047-22.3145 49.8047-49.8047s-22.3145-49.8047-49.8047-49.8047-49.8047 22.3145-49.8047 49.8047 22.3145 49.8047 49.8047 49.8047Zm0-8.30078c-22.9492 0-41.5039-18.5547-41.5039-41.5039s18.5547-41.5039 41.5039-41.5039 41.5039 18.5547 41.5039 41.5039-18.5547 41.5039-41.5039 41.5039Zm-22.6562-41.5039c0 2.39258 1.66016 4.00391 4.15039 4.00391h14.3555v14.4043c0 2.44141 1.66016 4.15039 4.05273 4.15039 2.44141 0 4.15039-1.66016 4.15039-4.15039v-14.4043h14.4043c2.44141 0 4.15039-1.61133 4.15039-4.00391 0-2.44141-1.70898-4.15039-4.15039-4.15039h-14.4043v-14.3555c0-2.49023-1.70898-4.19922-4.15039-4.19922-2.39258 0-4.05273 1.70898-4.05273 4.19922v14.3555h-14.3555c-2.49023 0-4.15039 1.70898-4.15039 4.15039Z"/>
  </g>
  <g transform="matrix(0.2 0 0 0.2 304.924 1933)">
   <path d="m74.8535 28.3203c35.1074 0 63.623-28.4668 63.623-63.5742s-28.5156-63.623-63.623-63.623-63.5742 28.5156-63.5742 63.623 28.4668 63.5742 63.5742 63.5742Zm0-9.08203c-30.127 0-54.4922-24.3652-54.4922-54.4922s24.3652-54.4922 54.4922-54.4922 54.4922 24.3652 54.4922 54.4922-24.3652 54.4922-54.4922 54.4922Zm-28.8574-54.4922c0 2.58789 1.85547 4.39453 4.58984 4.39453h19.7266v19.7754c0 2.68555 1.85547 4.58984 4.44336 4.58984 2.68555 0 4.54102-1.85547 4.54102-4.58984v-19.7754h19.7754c2.68555 0 4.58984-1.80664 4.58984-4.39453 0-2.73438-1.85547-4.58984-4.58984-4.58984h-19.7754v-19.7266c0-2.73438-1.85547-4.63867-4.54102-4.63867-2.58789 0-4.44336 1.9043-4.44336 4.63867v19.7266h-19.7266c-2.73438 0-4.58984 1.85547-4.58984 4.58984Z"/>
  </g>
  <text style="stroke:none;fill:black;font-family:sans-serif;font-size:13;font-weight:bold;" transform="matrix(1 0 0 1 263 1953)">Design Variations</text>
  <text style="stroke:none;fill:black;font-family:sans-serif;font-size:13;" transform="matrix(1 0 0 1 263 1971)">Symbols are supported in up to nine weights and three scales.</text>
  <text style="stroke:none;fill:black;font-family:sans-serif;font-size:13;" transform="matrix(1 0 0 1 263 1989)">For optimal layout with text and other symbols, vertically align</text>
  <text style="stroke:none;fill:black;font-family:sans-serif;font-size:13;" transform="matrix(1 0 0 1 263 2007)">symbols with the adjacent text.</text>
  <line style="fill:none;stroke:#00AEEF;stroke-width:0.5;opacity:1.0;" x1="776" x2="776" y1="1919" y2="1933"/>
  <g transform="matrix(0.2 0 0 0.2 776 1933)">
   <path d="m16.5527 0.78125c2.58789 0 3.85742-0.976562 4.78516-3.71094l6.29883-17.2363h28.8086l6.29883 17.2363c0.927734 2.73438 2.19727 3.71094 4.73633 3.71094 2.58789 0 4.24805-1.5625 4.24805-4.00391 0-0.830078-0.146484-1.61133-0.537109-2.63672l-22.9004-60.9863c-1.12305-2.97852-3.125-4.49219-6.25-4.49219-3.02734 0-5.07812 1.46484-6.15234 4.44336l-22.9004 61.084c-0.390625 1.02539-0.537109 1.80664-0.537109 2.63672 0 2.44141 1.5625 3.95508 4.10156 3.95508Zm13.4766-28.3691 11.8652-32.8613h0.244141l11.8652 32.8613Z"/>
  </g>
  <line style="fill:none;stroke:#00AEEF;stroke-width:0.5;opacity:1.0;" x1="792.836" x2="792.836" y1="1919" y2="1933"/>
  <text style="stroke:none;fill:black;font-family:sans-serif;font-size:13;font-weight:bold;" transform="matrix(1 0 0 1 776 1953)">Margins</text>
  <text style="stroke:none;fill:black;font-family:sans-serif;font-size:13;" transform="matrix(1 0 0 1 776 1971)">Leading and trailing margins on the left and right side of each symbol</text>
  <text style="stroke:none;fill:black;font-family:sans-serif;font-size:13;" transform="matrix(1 0 0 1 776 1989)">can be adjusted by modifying the x-location of the margin guidelines.</text>
  <text style="stroke:none;fill:black;font-family:sans-serif;font-size:13;" transform="matrix(1 0 0 1 776 2007)">Modifications are automatically applied proportionally to all</text>
  <text style="stroke:none;fill:black;font-family:sans-serif;font-size:13;" transform="matrix(1 0 0 1 776 2025)">scales and weights.</text>
  <g transform="matrix(0.2 0 0 0.2 1289 1933)">
   <path d="m14.209 9.32617 8.49609 8.54492c4.29688 4.3457 9.22852 4.05273 13.8672-1.07422l53.4668-58.9355-4.83398-4.88281-53.0762 58.3984c-1.75781 2.00195-3.41797 2.49023-5.76172 0.146484l-5.85938-5.81055c-2.34375-2.29492-1.80664-4.00391 0.195312-5.81055l57.373-54.0039-4.88281-4.83398-57.959 54.4434c-4.93164 4.58984-5.32227 9.47266-1.02539 13.8184Zm32.0801-90.9668c-2.09961 2.05078-2.24609 4.93164-1.07422 6.88477 1.17188 1.80664 3.4668 2.97852 6.68945 2.14844 7.32422-1.70898 14.9414-2.00195 22.0703 2.68555l-2.92969 7.27539c-1.70898 4.15039-0.830078 7.08008 1.85547 9.81445l11.4746 11.5723c2.44141 2.44141 4.49219 2.53906 7.32422 2.05078l5.32227-0.976562 3.32031 3.36914-0.195312 2.7832c-0.195312 2.49023 0.439453 4.39453 2.88086 6.78711l3.80859 3.71094c2.39258 2.39258 5.46875 2.53906 7.8125 0.195312l14.5508-14.5996c2.34375-2.34375 2.24609-5.32227-0.146484-7.71484l-3.85742-3.80859c-2.39258-2.39258-4.24805-3.17383-6.64062-2.97852l-2.88086 0.244141-3.22266-3.17383 1.2207-5.61523c0.634766-2.83203-0.146484-5.0293-3.07617-7.95898l-10.9863-10.9375c-16.6992-16.6016-38.8672-16.2109-53.3203-1.75781Zm7.4707 1.85547c12.1582-8.88672 28.6133-7.37305 39.7461 3.75977l12.1582 12.0605c1.17188 1.17188 1.36719 2.09961 1.02539 3.80859l-1.61133 7.42188 7.51953 7.42188 4.93164-0.292969c1.26953-0.0488281 1.66016 0.0488281 2.63672 1.02539l2.88086 2.88086-12.207 12.207-2.88086-2.88086c-0.976562-0.976562-1.12305-1.36719-1.07422-2.68555l0.341797-4.88281-7.4707-7.42188-7.61719 1.26953c-1.61133 0.341797-2.34375 0.195312-3.56445-0.976562l-10.0098-10.0098c-1.26953-1.17188-1.41602-2.00195-0.634766-3.85742l4.39453-10.4492c-7.8125-7.27539-17.9688-10.4004-28.125-7.42188-0.78125 0.195312-1.07422-0.439453-0.439453-0.976562Z"/>
  </g>
  <text style="stroke:none;fill:black;font-family:sans-serif;font-size:13;font-weight:bold;" transform="matrix(1 0 0 1 1289 1953)">Exporting</text>
  <text style="stroke:none;fill:black;font-family:sans-serif;font-size:13;" transform="matrix(1 0 0 1 1289 1971)">Symbols should be outlined when exporting to ensure the</text>
  <text style="stroke:none;fill:black;font-family:sans-serif;font-size:13;" transform="matrix(1 0 0 1 1289 1989)">design is preserved when submitting to Xcode.</text>
  <text id="template-version" style="stroke:none;fill:black;font-family:sans-serif;font-size:13;text-anchor:end;" transform="matrix(1 0 0 1 3036 1933)">Template v.6.0</text>
  <text style="stroke:none;fill:black;font-family:sans-serif;font-size:13;text-anchor:end;" transform="matrix(1 0 0 1 3036 1951)">Requires Xcode 16 or greater</text>
  <text id="descriptive-name" style="stroke:none;fill:black;font-family:sans-serif;font-size:13;text-anchor:end;" transform="matrix(1 0 0 1 3036 1969)">Generated from </text>
  <text style="stroke:none;fill:black;font-family:sans-serif;font-size:13;text-anchor:end;" transform="matrix(1 0 0 1 3036 1987)">Typeset at 100.0 points</text>
  <text style="stroke:none;fill:black;font-family:sans-serif;font-size:13;" transform="matrix(1 0 0 1 263 726)">Small</text>
  <text style="stroke:none;fill:black;font-family:sans-serif;font-size:13;" transform="matrix(1 0 0 1 263 1156)">Medium</text>
  <text style="stroke:none;fill:black;font-family:sans-serif;font-size:13;" transform="matrix(1 0 0 1 263 1586)">Large</text>
 </g>
 <g id="Guides">
  <g id="H-reference" style="fill:#27AAE1;stroke:none;" transform="matrix(1 0 0 1 339 696)">
   <path d="M0.993654 0L3.63775 0L29.3281-67.1323L30.0303-67.1323L30.0303-70.459L28.1226-70.459ZM11.6885-24.4799L46.9815-24.4799L46.2315-26.7285L12.4385-26.7285ZM55.1196 0L57.7637 0L30.6382-70.459L29.4326-70.459L29.4326-67.1323Z"/>
  </g>
  <line id="Baseline-S" style="fill:none;stroke:#27AAE1;opacity:1;stroke-width:0.5;" x1="263" x2="3036" y1="696" y2="696"/>
  <line id="Capline-S" style="fill:none;stroke:#27AAE1;opacity:1;stroke-width:0.5;" x1="263" x2="3036" y1="625.541" y2="625.541"/>
  <g id="H-reference" style="fill:#27AAE1;stroke:none;" transform="matrix(1 0 0 1 339 1126)">
   <path d="M0.993654 0L3.63775 0L29.3281-67.1323L30.0303-67.1323L30.0303-70.459L28.1226-70.459ZM11.6885-24.4799L46.9815-24.4799L46.2315-26.7285L12.4385-26.7285ZM55.1196 0L57.7637 0L30.6382-70.459L29.4326-70.459L29.4326-67.1323Z"/>
  </g>
  <line id="Baseline-M" style="fill:none;stroke:#27AAE1;opacity:1;stroke-width:0.5;" x1="263" x2="3036" y1="1126" y2="1126"/>
  <line id="Capline-M" style="fill:none;stroke:#27AAE1;opacity:1;stroke-width:0.5;" x1="263" x2="3036" y1="1055.54" y2="1055.54"/>
  <g id="H-reference" style="fill:#27AAE1;stroke:none;" transform="matrix(1 0 0 1 339 1556)">
   <path d="M0.993654 0L3.63775 0L29.3281-67.1323L30.0303-67.1323L30.0303-70.459L28.1226-70.459ZM11.6885-24.4799L46.9815-24.4799L46.2315-26.7285L12.4385-26.7285ZM55.1196 0L57.7637 0L30.6382-70.459L29.4326-70.459L29.4326-67.1323Z"/>
  </g>
  <line id="Baseline-L" style="fill:none;stroke:#27AAE1;opacity:1;stroke-width:0.5;" x1="263" x2="3036" y1="1556" y2="1556"/>
  <line id="Capline-L" style="fill:none;stroke:#27AAE1;opacity:1;stroke-width:0.5;" x1="263" x2="3036" y1="1485.54" y2="1485.54"/>
  <line id="right-margin-Black-S" style="fill:none;stroke:#00AEEF;stroke-width:0.5;opacity:1.0;" x1="2989.45" x2="2989.45" y1="600.785" y2="720.121"/>
  <line id="left-margin-Black-S" style="fill:none;stroke:#00AEEF;stroke-width:0.5;opacity:1.0;" x1="2877.35" x2="2877.35" y1="600.785" y2="720.121"/>
  <line id="right-margin-Regular-S" style="fill:none;stroke:#00AEEF;stroke-width:0.5;opacity:1.0;" x1="1502.16" x2="1502.16" y1="600.785" y2="720.121"/>
  <line id="left-margin-Regular-S" style="fill:none;stroke:#00AEEF;stroke-width:0.5;opacity:1.0;" x1="1397.53" x2="1397.53" y1="600.785" y2="720.121"/>
  <line id="right-margin-Ultralight-S" style="fill:none;stroke:#00AEEF;stroke-width:0.5;opacity:1.0;" x1="609.873" x2="609.873" y1="600.785" y2="720.121"/>
  <line id="left-margin-Ultralight-S" style="fill:none;stroke:#00AEEF;stroke-width:0.5;opacity:1.0;" x1="509.549" x2="509.549" y1="600.785" y2="720.121"/>
 </g>
 <g id="Symbols">
  <g id="Black-S" transform="matrix(1 0 0 1 2877.35 696)">
   <path class="monochrome-0 multicolor-0:tintColor hierarchical-0:secondary SFSymbolsPreviewWireframe" d="M39.8438 10.3516C43.2617 10.3516 46.2402 9.08203 50.4395 5.46875L63.0371-5.37109L82.2266-5.37109C94.2383-5.37109 102.344-13.4766 102.344-25.4883L102.344-57.1289C102.344-69.1406 94.2383-77.2461 82.2266-77.2461L29.8828-77.2461C17.8711-77.2461 9.76562-69.1406 9.76562-57.1289L9.76562-25.4883C9.76562-13.4766 18.8477-5.37109 28.418-5.37109L31.6406-5.37109L31.6406 1.46484C31.6406 7.03125 34.8145 10.3516 39.8438 10.3516ZM43.1641-5.17578L43.1641-15.2344C43.1641-18.3594 41.4062-19.5312 38.8672-19.5312L31.1523-19.5312C26.4648-19.5312 23.9258-21.875 23.9258-26.7578L23.9258-55.8594C23.9258-60.7422 26.4648-63.0859 31.1523-63.0859L80.957-63.0859C85.6445-63.0859 88.1836-60.7422 88.1836-55.8594L88.1836-26.7578C88.1836-21.875 85.6445-19.5312 80.957-19.5312L61.7676-19.5312C58.5449-19.5312 57.2754-18.7988 54.834-16.4551Z"/>
   <path class="monochrome-1 multicolor-1:tintColor hierarchical-1:secondary SFSymbolsPreviewWireframe" d="M36.7676-44.8242C36.7676-39.9414 39.8926-36.5234 44.1406-36.5234C46.4355-36.5234 48.1934-37.2559 49.3164-38.5742L50.3418-38.5742C49.8047-36.1816 47.168-33.6426 42.7734-32.7148C41.8457-32.5195 41.1621-31.8359 41.1621-30.8594C41.1621-29.5898 42.2363-28.9551 43.5059-28.9551C48.584-28.9551 55.2734-35.0586 55.2734-42.5293C55.2734-48.6816 51.709-53.6621 45.5566-53.6621C40.4297-53.6621 36.7676-49.9512 36.7676-44.8242ZM57.959-44.8242C57.959-39.9414 61.084-36.5234 65.332-36.5234C67.627-36.5234 69.3848-37.2559 70.5078-38.5742L71.5332-38.5742C70.9961-36.1816 68.3594-33.6426 63.9648-32.7148C63.0371-32.5195 62.3535-31.8359 62.3535-30.8594C62.3535-29.5898 63.4277-28.9551 64.6973-28.9551C69.7754-28.9551 76.4648-35.0586 76.4648-42.5293C76.4648-48.6816 72.9004-53.6621 66.748-53.6621C61.6211-53.6621 57.959-49.9512 57.959-44.8242Z"/>
   <path class="monochrome-2 multicolor-2:tintColor hierarchical-2:primary SFSymbolsPreviewWireframe" d="M100.022-4.48836C103.673-0.837264 103.673 5.09118 100.022 8.74227C96.3707 12.3934 90.4422 12.3934 86.7911 8.74227L12.0782-65.9706C8.42714-69.6217 8.42714-75.5502 12.0782-79.2013C15.7293-82.8524 21.6578-82.8524 25.3089-79.2013Z" data-clipstroke-keyframes="0 0 0.0 0.5 0.6082697 0 1.0 0.10826972 0.0"/>
   <path class="monochrome-3 multicolor-3:tintColor hierarchical-3:primary SFSymbolsPreviewWireframe" d="M95.8717-0.338247C97.2322 1.02234 97.2322 3.23158 95.8717 4.59217C94.5111 5.95275 92.3018 5.95275 90.9412 4.59217L16.2283-70.1207C14.8678-71.4813 14.8678-73.6906 16.2283-75.0511C17.5889-76.4117 19.7982-76.4117 21.1588-75.0511Z" data-clipstroke-keyframes="0 0 0.0 0.5 0.5458696 0 1.0 0.04586959 0.0"/>
  </g>
  <g id="Regular-S" transform="matrix(1 0 0 1 1397.53 696)">
   <path class="monochrome-0 multicolor-0:tintColor hierarchical-0:secondary SFSymbolsPreviewWireframe" d="M34.2773 7.37305C36.4258 7.37305 37.8906 6.25 40.5273 3.85742L53.6133-7.86133L76.5625-7.86133C88.5742-7.86133 94.873-14.3555 94.873-26.1719L94.873-54.5898C94.873-66.4062 88.5742-72.9004 76.5625-72.9004L28.0762-72.9004C16.0645-72.9004 9.76562-66.4062 9.76562-54.5898L9.76562-26.1719C9.76562-14.3555 16.0645-7.86133 28.0762-7.86133L29.4922-7.86133L29.4922 1.85547C29.4922 5.22461 31.2012 7.37305 34.2773 7.37305ZM36.084-0.634766L36.084-11.6211C36.084-14.0137 35.2051-14.8926 32.8125-14.8926L28.0762-14.8926C20.2148-14.8926 16.7969-18.6523 16.7969-26.1719L16.7969-54.5898C16.7969-62.0605 20.2148-65.8203 28.0762-65.8203L76.5625-65.8203C84.4238-65.8203 87.8418-62.0605 87.8418-54.5898L87.8418-26.1719C87.8418-18.6523 84.4238-14.8926 76.5625-14.8926L53.2227-14.8926C50.8789-14.8926 49.6582-14.5508 48.0957-12.8906Z"/>
   <path class="monochrome-1 multicolor-1:tintColor hierarchical-1:secondary SFSymbolsPreviewWireframe" d="M33.7891-44.5312C33.7891-40.1367 36.5234-36.7188 40.8691-36.7188C42.4316-36.7188 43.9941-36.9141 44.9707-38.1348L45.2637-38.1348C43.8477-35.1074 41.1621-33.2031 38.5254-32.5195C37.0605-32.1289 36.6211-31.4453 36.6211-30.5176C36.6211-29.4922 37.4512-28.6621 38.5742-28.6621C42.627-28.6621 50.3418-33.3496 50.3418-43.1152C50.3418-48.291 47.0215-52.3438 41.9434-52.3438C37.3047-52.3438 33.7891-49.1699 33.7891-44.5312ZM54.3457-44.5312C54.3457-40.1367 57.0312-36.7188 61.4258-36.7188C62.9395-36.7188 64.5508-36.9141 65.5273-38.1348L65.8203-38.1348C64.4043-35.1074 61.6699-33.2031 59.082-32.5195C57.6172-32.1289 57.1777-31.4453 57.1777-30.5176C57.1777-29.4922 57.959-28.6621 59.1309-28.6621C63.1836-28.6621 70.8496-33.3496 70.8496-43.1152C70.8496-48.291 67.5781-52.3438 62.5-52.3438C57.8613-52.3438 54.3457-49.1699 54.3457-44.5312Z"/>
   <path class="monochrome-2 multicolor-2:tintColor hierarchical-2:primary SFSymbolsPreviewWireframe" d="M93.3683-6.06714C96.6498-2.78573 96.6498 2.54245 93.3683 5.82386C90.0869 9.10527 84.7588 9.10527 81.4774 5.82386L11.2617-64.3918C7.98024-67.6733 7.98024-73.0014 11.2617-76.2828C14.5431-79.5643 19.8712-79.5643 23.1526-76.2828Z" data-clipstroke-keyframes="0 0 0.0 0.5 0.60452837 0 1.0 0.104528375 0.0"/>
   <path class="monochrome-3 multicolor-3:tintColor hierarchical-3:primary SFSymbolsPreviewWireframe" d="M89.9019-2.60066C91.2701-1.23245 91.2701 0.98917 89.9019 2.35738C88.5337 3.72558 86.312 3.72558 84.9438 2.35738L14.7281-67.8583C13.3599-69.2265 13.3599-71.4482 14.7281-72.8164C16.0963-74.1846 18.318-74.1846 19.6862-72.8164Z" data-clipstroke-keyframes="0 0 0.0 0.5 0.5487678 0 1.0 0.048767686 0.0"/>
  </g>
  <g id="Ultralight-S" transform="matrix(1 0 0 1 509.549 696)">
   <path class="monochrome-0 multicolor-0:tintColor hierarchical-0:secondary SFSymbolsPreviewWireframe" d="M28.919 4.10354C29.6597 4.10354 30.2164 3.70705 30.8551 3.17627L44.7584-8.6787L76.5625-8.6787C85.1231-8.6787 90.5591-14.2192 90.5591-22.6753L90.5591-56.043C90.5591-64.499 85.1231-70.0396 76.5625-70.0396L23.7622-70.0396C15.2017-70.0396 9.76562-64.5899 9.76562-56.043L9.76562-22.6753C9.76562-14.1284 15.2017-8.6787 23.7622-8.6787L27.3125-8.6787L27.3125 2.26416C27.3125 3.40822 27.9771 4.10354 28.919 4.10354ZM29.4087 1.68113L29.4087-9.8047C29.4087-10.5625 29.0748-10.8965 28.3169-10.8965L23.8531-10.8965C16.5821-10.8965 11.9834-15.5645 11.9834-22.7661L11.9834-55.9521C11.9834-63.1958 16.5821-67.8183 23.8531-67.8183L76.4717-67.8183C83.561-67.8183 88.3413-63.1958 88.3413-55.9521L88.3413-22.7661C88.3413-15.5645 83.561-10.8965 76.4717-10.8965L45.1397-10.8965C44.1128-10.8965 43.5733-10.6909 42.6465-9.89358Z"/>
   <path class="monochrome-1 multicolor-1:tintColor hierarchical-1:secondary SFSymbolsPreviewWireframe" d="M31.6094-43.0327C31.6094-38.8198 34.48-35.7651 38.6441-35.7651C40.479-35.7651 42.1777-36.3691 43.2905-37.8169L43.6289-37.8169C42.2583-33.7905 38.2559-31.4321 36.3457-30.8848C35.2442-30.585 34.8955-30.1284 34.8955-29.4277C34.8955-28.6748 35.4986-28.0718 36.3491-28.0718C39.312-28.0718 47.5264-32.0781 47.5264-41.6167C47.5264-47.1104 43.6612-50.5728 39.355-50.5728C34.9434-50.5728 31.6094-47.2627 31.6094-43.0327ZM52.7564-43.0327C52.7564-38.8198 55.6235-35.7651 59.791-35.7651C61.6226-35.7651 63.3247-36.3691 64.4375-37.8169L64.8213-37.8169C63.4961-33.7905 59.4448-31.4321 57.4927-30.8848C56.4365-30.585 56.0425-30.1284 56.0425-29.4277C56.0425-28.6748 56.6421-28.0718 57.4961-28.0718C60.5044-28.0718 68.6699-32.0781 68.6699-41.6167C68.6699-47.1104 64.8535-50.5728 60.502-50.5728C56.0903-50.5728 52.7564-47.2627 52.7564-43.0327Z"/>
   <path class="monochrome-2 multicolor-2:tintColor hierarchical-2:primary SFSymbolsPreviewWireframe" d="M87.8482-3.06064C89.3708-1.53808 89.3708 0.934172 87.8482 2.45673C86.3257 3.97929 83.8534 3.97929 82.3309 2.45673L12.4758-67.3983C10.9532-68.9209 10.9532-71.3932 12.4758-72.9157C13.9983-74.4383 16.4706-74.4383 17.9931-72.9157Z" data-clipstroke-keyframes="0 0 0.0 0.5 0.55392593 0 1.0 0.053925958 0.0"/>
   <path class="monochrome-3 multicolor-3:tintColor hierarchical-3:primary SFSymbolsPreviewWireframe" d="M85.7973-1.00975C86.188-0.619106 86.188 0.0152006 85.7973 0.405845C85.4067 0.796489 84.7724 0.796489 84.3817 0.405845L14.5267-69.4492C14.136-69.8399 14.136-70.4742 14.5267-70.8648C14.9173-71.2555 15.5516-71.2555 15.9423-70.8648Z" data-clipstroke-keyframes="0 0 0.0 0.5 0.5139301 0 1.0 0.013930082 0.0"/>
  </g>
 </g>
</svg>
