<?xml version="1.0" encoding="UTF-8"?>
<svg height="600" width="800" xmlns="http://www.w3.org/2000/svg" xmlns:xlink="http://www.w3.org/1999/xlink">
    <g id="Notes" font-family="'LucidaGrande', 'Lucida Grande', sans-serif" font-size="13">
        <rect fill="white" height="600.0" width="800.0" x="0.0" y="0.0" />
        <g font-size="13">
            <text x="18.0" y="176.0">Small</text>
            <text x="18.0" y="376.0">Medium</text>
            <text x="18.0" y="576.0">Large</text>
        </g>
        <g font-size="9">
            <text x="250.0" y="30.0">Ultralight</text>
            <text x="450.0" y="30.0">Regular</text>
            <text x="650.0" y="30.0">Black</text>
            <text id="template-version" fill="#505050" text-anchor="end" x="785.0" y="575.0">Template v.3.0</text>
            <a href="https://wangchujiang.com/#/app">
                <text fill="#505050" text-anchor="end" x="785.0" y="590.0">https://wangchujiang.com/#/app</text>
            </a>
        </g>
    </g>
    <g id="Guides" stroke="rgb(39, 170, 225)" stroke-width="0.5">
        <path id="Capline-S" d="M18,76 l800,0" />
        <path id="H-reference" d="M85,145.755 L87.685,145.755 L113.369,79.287 L114.052,79.287 L114.052,76 L112.148,76 L85,145.755 Z M95.693,121.536 L130.996,121.536 L130.263,119.313 L96.474,119.313 L95.693,121.536 Z M139.15,145.755 L141.787,145.755 L114.638,76 L113.466,76 L113.466,79.287 L139.15,145.755 Z" stroke="none" />
        <path id="Baseline-S" d="M18,146 l800,0" />
        <path id="left-margin-Ultralight-S" d="M219.115,56 l0,110" />
        <path id="right-margin-Ultralight-S" d="M310.885,56 l0,110" />
        <path id="left-margin-Regular-S" d="M419.115,56 l0,110" />
        <path id="right-margin-Regular-S" d="M510.885,56 l0,110" />
        <path id="left-margin-Black-S" d="M619.115,56 l0,110" />
        <path id="right-margin-Black-S" d="M710.885,56 l0,110" />
        <path id="Capline-M" d="M18,276 l800,0" />
        <path id="Baseline-M" d="M18,346 l800,0" />
        <path id="Capline-L" d="M18,476 l800,0" />
        <path id="Baseline-L" d="M18,546 l800,0" />
    </g>
    <g id="Symbols">
        <g id="Ultralight-S">
            <path d="M265,76 C245.173,76 229.115,92.059 229.115,111.885 C229.115,127.765 239.387,141.177 253.651,145.931 C255.446,146.245 256.118,145.169 256.118,144.227 C256.118,143.375 256.074,140.549 256.074,137.543 C247.057,139.203 244.725,135.345 244.007,133.327 C243.603,132.295 241.854,129.11 240.329,128.258 C239.073,127.585 237.279,125.925 240.284,125.881 C243.11,125.836 245.129,128.482 245.801,129.559 C249.031,134.986 254.19,133.461 256.253,132.519 C256.567,130.187 257.509,128.617 258.541,127.72 C250.556,126.823 242.213,123.727 242.213,110.001 C242.213,106.099 243.603,102.869 245.891,100.357 C245.532,99.46 244.276,95.782 246.25,90.848 C246.25,90.848 249.255,89.906 256.118,94.526 C258.989,93.718 262.039,93.315 265.09,93.315 C268.14,93.315 271.19,93.718 274.061,94.526 C280.924,89.861 283.93,90.848 283.93,90.848 C285.903,95.782 284.647,99.46 284.288,100.357 C286.576,102.869 287.967,106.054 287.967,110.001 C287.967,123.772 279.578,126.823 271.594,127.72 C272.895,128.841 274.016,130.994 274.016,134.358 C274.016,139.158 273.971,143.016 273.971,144.227 C273.971,145.169 274.644,146.29 276.438,145.931 C290.613,141.177 300.885,127.72 300.885,111.885 C300.885,92.059 284.827,76 265,76 Z" />
        </g>
        <g id="Regular-S">
            <path d="M465,76 C445.173,76 429.115,92.059 429.115,111.885 C429.115,127.765 439.387,141.177 453.651,145.931 C455.446,146.245 456.118,145.169 456.118,144.227 C456.118,143.375 456.074,140.549 456.074,137.543 C447.057,139.203 444.725,135.345 444.007,133.327 C443.603,132.295 441.854,129.11 440.329,128.258 C439.073,127.585 437.279,125.925 440.284,125.881 C443.11,125.836 445.129,128.482 445.801,129.559 C449.031,134.986 454.19,133.461 456.253,132.519 C456.567,130.187 457.509,128.617 458.541,127.72 C450.556,126.823 442.213,123.727 442.213,110.001 C442.213,106.099 443.603,102.869 445.891,100.357 C445.532,99.46 444.276,95.782 446.25,90.848 C446.25,90.848 449.255,89.906 456.118,94.526 C458.989,93.718 462.039,93.315 465.09,93.315 C468.14,93.315 471.19,93.718 474.061,94.526 C480.924,89.861 483.93,90.848 483.93,90.848 C485.903,95.782 484.647,99.46 484.288,100.357 C486.576,102.869 487.967,106.054 487.967,110.001 C487.967,123.772 479.578,126.823 471.594,127.72 C472.895,128.841 474.016,130.994 474.016,134.358 C474.016,139.158 473.971,143.016 473.971,144.227 C473.971,145.169 474.644,146.29 476.438,145.931 C490.613,141.177 500.885,127.72 500.885,111.885 C500.885,92.059 484.827,76 465,76 Z" />
        </g>
        <g id="Black-S">
            <path d="M665,76 C645.173,76 629.115,92.059 629.115,111.885 C629.115,127.765 639.387,141.177 653.651,145.931 C655.446,146.245 656.118,145.169 656.118,144.227 C656.118,143.375 656.074,140.549 656.074,137.543 C647.057,139.203 644.725,135.345 644.007,133.327 C643.603,132.295 641.854,129.11 640.329,128.258 C639.073,127.585 637.279,125.925 640.284,125.881 C643.11,125.836 645.129,128.482 645.801,129.559 C649.031,134.986 654.19,133.461 656.253,132.519 C656.567,130.187 657.509,128.617 658.541,127.72 C650.556,126.823 642.213,123.727 642.213,110.001 C642.213,106.099 643.603,102.869 645.891,100.357 C645.532,99.46 644.276,95.782 646.25,90.848 C646.25,90.848 649.255,89.906 656.118,94.526 C658.989,93.718 662.039,93.315 665.09,93.315 C668.14,93.315 671.19,93.718 674.061,94.526 C680.924,89.861 683.93,90.848 683.93,90.848 C685.903,95.782 684.647,99.46 684.288,100.357 C686.576,102.869 687.967,106.054 687.967,110.001 C687.967,123.772 679.578,126.823 671.594,127.72 C672.895,128.841 674.016,130.994 674.016,134.358 C674.016,139.158 673.971,143.016 673.971,144.227 C673.971,145.169 674.644,146.29 676.438,145.931 C690.613,141.177 700.885,127.72 700.885,111.885 C700.885,92.059 684.827,76 665,76 Z" />
        </g>
    </g>
</svg>