<?xml version="1.0" encoding="UTF-8"?>
<svg height="600" width="800" xmlns="http://www.w3.org/2000/svg" xmlns:xlink="http://www.w3.org/1999/xlink">
    <g id="Notes" font-family="'LucidaGrande', 'Lucida Grande', sans-serif" font-size="13">
        <rect fill="white" height="600.0" width="800.0" x="0.0" y="0.0" />
        <g font-size="13">
            <text x="18.0" y="176.0">Small</text>
            <text x="18.0" y="376.0">Medium</text>
            <text x="18.0" y="576.0">Large</text>
        </g>
        <g font-size="9">
            <text x="250.0" y="30.0">Ultralight</text>
            <text x="450.0" y="30.0">Regular</text>
            <text x="650.0" y="30.0">Black</text>
            <text id="template-version" fill="#505050" text-anchor="end" x="785.0" y="575.0">Template v.3.0</text>
            <a href="https://wangchujiang.com/#/app">
                <text fill="#505050" text-anchor="end" x="785.0" y="590.0">https://wangchujiang.com/#/app</text>
            </a>
        </g>
    </g>
    <g id="Guides" stroke="rgb(39, 170, 225)" stroke-width="0.5">
        <path id="Capline-S" d="M18,76 l800,0" />
        <path id="H-reference" d="M85,145.755 L87.685,145.755 L113.369,79.287 L114.052,79.287 L114.052,76 L112.148,76 L85,145.755 Z M95.693,121.536 L130.996,121.536 L130.263,119.313 L96.474,119.313 L95.693,121.536 Z M139.15,145.755 L141.787,145.755 L114.638,76 L113.466,76 L113.466,79.287 L139.15,145.755 Z" stroke="none" />
        <path id="Baseline-S" d="M18,146 l800,0" />
        <path id="left-margin-Ultralight-S" d="M219.831,56 l0,110" />
        <path id="right-margin-Ultralight-S" d="M310.169,56 l0,110" />
        <path id="left-margin-Regular-S" d="M419.831,56 l0,110" />
        <path id="right-margin-Regular-S" d="M510.169,56 l0,110" />
        <path id="left-margin-Black-S" d="M619.831,56 l0,110" />
        <path id="right-margin-Black-S" d="M710.169,56 l0,110" />
        <path id="Capline-M" d="M18,276 l800,0" />
        <path id="Baseline-M" d="M18,346 l800,0" />
        <path id="Capline-L" d="M18,476 l800,0" />
        <path id="Baseline-L" d="M18,546 l800,0" />
    </g>
    <g id="Symbols">
        <g id="Ultralight-S">
            <path d="M286.599,86.323 C288.422,89.08 283.937,107.034 270.354,113.744 C267.809,121.893 265.032,125.115 262.279,127.09 C260.352,125.811 260.025,123.125 260.186,119.968 C259.325,120.273 258.315,120.236 257.378,120.206 C256.374,119.674 253.421,116.84 253.038,115.545 C252.891,114.484 253.219,113.001 253.449,112.107 C250.816,112.145 249.409,112.734 245.619,111.79 C248.062,105.742 254.139,104.23 259.106,103.422 C267.354,86.539 286.272,85.044 286.599,86.323 Z M276.433,96.923 C274.58,95.07 271.525,95.117 269.615,97.027 C267.705,98.937 267.659,101.992 269.511,103.845 C271.364,105.697 274.419,105.651 276.329,103.741 C278.239,101.831 278.286,98.776 276.433,96.923 Z" />
            <path d="M270.483,97.086 C271.872,95.697 274.119,95.693 275.502,97.076 C276.885,98.459 276.88,100.706 275.491,102.094 C274.593,102.994 273.285,103.348 272.06,103.023 C270.835,102.697 269.88,101.742 269.555,100.517 C269.229,99.292 269.583,97.984 270.483,97.086 Z" />
            <path d="M251.543,116.752 C253.432,117.559 255.406,119.487 256.108,121.16 C257.499,124.479 245.609,130.557 243.569,129.552 C242.48,127.874 248.467,117.001 251.543,116.752 Z" />
            <path d="M290.473,111.154 L290.473,135.79 C290.473,136.885 289.584,137.773 288.489,137.773 L284.523,137.773 C283.428,137.773 282.539,136.885 282.539,135.79 L282.539,111.154 C282.539,110.059 283.428,109.17 284.523,109.17 L288.489,109.17 C289.584,109.17 290.473,110.059 290.473,111.154 Z" />
            <path d="M280.446,121.17 L280.446,135.789 C280.446,136.884 279.558,137.773 278.463,137.773 L274.496,137.773 C273.402,137.773 272.513,136.884 272.513,135.789 L272.513,121.17 C272.513,120.076 273.402,119.187 274.496,119.187 L278.463,119.187 C279.558,119.187 280.446,120.076 280.446,121.17 Z" />
            <path d="M270.42,131.25 L270.42,135.789 C270.42,136.884 269.532,137.773 268.437,137.773 L264.47,137.773 C263.375,137.773 262.487,136.884 262.487,135.789 L262.487,131.25 C262.487,130.155 263.375,129.267 264.47,129.267 L268.437,129.267 C269.532,129.267 270.42,130.155 270.42,131.25 Z" />
            <path d="M296.631,87.973 L296.631,134.027 C296.631,138.902 292.733,142.799 288.027,142.799 L241.973,142.799 C237.267,142.799 233.369,138.902 233.369,134.027 L233.369,87.973 C233.369,83.098 237.267,79.201 241.973,79.201 L288.027,79.201 C292.733,79.201 296.631,83.098 296.631,87.973 Z M300.169,87.973 C300.169,81.398 294.771,76 288.027,76 L241.973,76 C235.229,76 229.831,81.398 229.831,87.973 L229.831,134.027 C229.831,140.602 235.229,146 241.973,146 L288.027,146 C294.771,146 300.169,140.602 300.169,134.027 L300.169,87.973 Z" />
        </g>
        <g id="Regular-S">
            <path d="M486.599,86.323 C488.422,89.08 483.937,107.034 470.354,113.744 C467.809,121.893 465.032,125.115 462.279,127.09 C460.352,125.811 460.025,123.125 460.186,119.968 C459.325,120.273 458.315,120.236 457.378,120.206 C456.374,119.674 453.421,116.84 453.038,115.545 C452.891,114.484 453.219,113.001 453.449,112.107 C450.816,112.145 449.409,112.734 445.619,111.79 C448.062,105.742 454.139,104.23 459.106,103.422 C467.354,86.539 486.272,85.044 486.599,86.323 Z M476.433,96.923 C474.58,95.07 471.525,95.117 469.615,97.027 C467.705,98.937 467.659,101.992 469.511,103.845 C471.364,105.697 474.419,105.651 476.329,103.741 C478.239,101.831 478.286,98.776 476.433,96.923 Z" />
            <path d="M470.483,97.086 C471.872,95.697 474.119,95.693 475.502,97.076 C476.885,98.459 476.88,100.706 475.491,102.094 C474.593,102.994 473.285,103.348 472.06,103.023 C470.835,102.697 469.88,101.742 469.555,100.517 C469.229,99.292 469.583,97.984 470.483,97.086 Z" />
            <path d="M451.543,116.752 C453.432,117.559 455.406,119.487 456.108,121.16 C457.499,124.479 445.609,130.557 443.569,129.552 C442.48,127.874 448.467,117.001 451.543,116.752 Z" />
            <path d="M490.473,111.154 L490.473,135.79 C490.473,136.885 489.584,137.773 488.489,137.773 L484.523,137.773 C483.428,137.773 482.539,136.885 482.539,135.79 L482.539,111.154 C482.539,110.059 483.428,109.17 484.523,109.17 L488.489,109.17 C489.584,109.17 490.473,110.059 490.473,111.154 Z" />
            <path d="M480.446,121.17 L480.446,135.789 C480.446,136.884 479.558,137.773 478.463,137.773 L474.496,137.773 C473.402,137.773 472.513,136.884 472.513,135.789 L472.513,121.17 C472.513,120.076 473.402,119.187 474.496,119.187 L478.463,119.187 C479.558,119.187 480.446,120.076 480.446,121.17 Z" />
            <path d="M470.42,131.25 L470.42,135.789 C470.42,136.884 469.532,137.773 468.437,137.773 L464.47,137.773 C463.375,137.773 462.487,136.884 462.487,135.789 L462.487,131.25 C462.487,130.155 463.375,129.267 464.47,129.267 L468.437,129.267 C469.532,129.267 470.42,130.155 470.42,131.25 Z" />
            <path d="M496.631,87.973 L496.631,134.027 C496.631,138.902 492.733,142.799 488.027,142.799 L441.973,142.799 C437.267,142.799 433.369,138.902 433.369,134.027 L433.369,87.973 C433.369,83.098 437.267,79.201 441.973,79.201 L488.027,79.201 C492.733,79.201 496.631,83.098 496.631,87.973 Z M500.169,87.973 C500.169,81.398 494.771,76 488.027,76 L441.973,76 C435.229,76 429.831,81.398 429.831,87.973 L429.831,134.027 C429.831,140.602 435.229,146 441.973,146 L488.027,146 C494.771,146 500.169,140.602 500.169,134.027 L500.169,87.973 Z" />
        </g>
        <g id="Black-S">
            <path d="M686.599,86.323 C688.422,89.08 683.937,107.034 670.354,113.744 C667.809,121.893 665.032,125.115 662.279,127.09 C660.352,125.811 660.025,123.125 660.186,119.968 C659.325,120.273 658.315,120.236 657.378,120.206 C656.374,119.674 653.421,116.84 653.038,115.545 C652.891,114.484 653.219,113.001 653.449,112.107 C650.816,112.145 649.409,112.734 645.619,111.79 C648.062,105.742 654.138,104.23 659.106,103.422 C667.354,86.539 686.272,85.044 686.599,86.323 Z M676.433,96.923 C674.58,95.07 671.525,95.117 669.615,97.027 C667.705,98.937 667.659,101.992 669.511,103.845 C671.364,105.697 674.419,105.651 676.329,103.741 C678.239,101.831 678.286,98.776 676.433,96.923 Z" />
            <path d="M670.483,97.086 C671.872,95.697 674.119,95.693 675.502,97.076 C676.885,98.459 676.88,100.706 675.491,102.094 C674.593,102.994 673.285,103.348 672.06,103.023 C670.835,102.697 669.88,101.742 669.554,100.517 C669.229,99.292 669.583,97.984 670.483,97.086 Z" />
            <path d="M651.543,116.752 C653.432,117.559 655.406,119.487 656.107,121.16 C657.499,124.479 645.609,130.557 643.569,129.552 C642.48,127.874 648.467,117.001 651.543,116.752 Z" />
            <path d="M690.473,111.154 L690.473,135.79 C690.473,136.885 689.584,137.773 688.489,137.773 L684.523,137.773 C683.428,137.773 682.539,136.885 682.539,135.79 L682.539,111.154 C682.539,110.059 683.428,109.17 684.523,109.17 L688.489,109.17 C689.584,109.17 690.473,110.059 690.473,111.154 Z" />
            <path d="M680.446,121.17 L680.446,135.789 C680.446,136.884 679.558,137.773 678.463,137.773 L674.496,137.773 C673.401,137.773 672.513,136.884 672.513,135.789 L672.513,121.17 C672.513,120.076 673.401,119.187 674.496,119.187 L678.463,119.187 C679.558,119.187 680.446,120.076 680.446,121.17 Z" />
            <path d="M670.42,131.25 L670.42,135.789 C670.42,136.884 669.532,137.773 668.437,137.773 L664.47,137.773 C663.375,137.773 662.487,136.884 662.487,135.789 L662.487,131.25 C662.487,130.155 663.375,129.267 664.47,129.267 L668.437,129.267 C669.532,129.267 670.42,130.155 670.42,131.25 Z" />
            <path d="M696.63,87.973 L696.63,134.027 C696.63,138.902 692.733,142.799 688.027,142.799 L641.973,142.799 C637.267,142.799 633.369,138.902 633.369,134.027 L633.369,87.973 C633.369,83.098 637.267,79.201 641.973,79.201 L688.027,79.201 C692.733,79.201 696.63,83.098 696.63,87.973 Z M700.169,87.973 C700.169,81.398 694.771,76 688.027,76 L641.973,76 C635.229,76 629.831,81.398 629.831,87.973 L629.831,134.027 C629.831,140.602 635.229,146 641.973,146 L688.027,146 C694.771,146 700.169,140.602 700.169,134.027 L700.169,87.973 Z" />
        </g>
    </g>
</svg>